<?xml version="1.0" ?><svg id="Layer_1" style="enable-background:new 0 0 128 128;" version="1.1" viewBox="0 0 128 128" xml:space="preserve" xmlns="http://www.w3.org/2000/svg" xmlns:xlink="http://www.w3.org/1999/xlink"><style type="text/css">
	.st0{opacity:0.3;fill-rule:evenodd;clip-rule:evenodd;fill:url(#SVGID_1_);}
	.st1{fill-rule:evenodd;clip-rule:evenodd;fill:url(#SVGID_2_);}
	.st2{opacity:0.6;fill-rule:evenodd;clip-rule:evenodd;fill:#FFFFFF;}
	.st3{fill-rule:evenodd;clip-rule:evenodd;fill:#373435;}
	.st4{fill-rule:evenodd;clip-rule:evenodd;fill:url(#SVGID_3_);}
</style><radialGradient cx="63.9997" cy="118.0887" gradientTransform="matrix(1 0 0 0.3 0 82.6621)" gradientUnits="userSpaceOnUse" id="SVGID_1_" r="30.2251"><stop offset="0" style="stop-color:#414042"/><stop offset="0.7923" style="stop-color:#0E0E0E;stop-opacity:0.2077"/><stop offset="1" style="stop-color:#000000;stop-opacity:0"/></radialGradient><path class="st0" d="M105.6,124c0,4.4-18.6,4-41.6,4c-23,0-41.6,0.4-41.6-4c0-4.4,18.6-15.8,41.6-15.8  C87,108.2,105.6,119.6,105.6,124z"/><linearGradient gradientUnits="userSpaceOnUse" id="SVGID_2_" x1="100.4503" x2="27.5453" y1="93.0875" y2="14.9064"><stop offset="0" style="stop-color:#000002"/><stop offset="0.5" style="stop-color:#343333"/><stop offset="1" style="stop-color:#343333"/></linearGradient><path class="st1" d="M11.2,51.3L61.3,1.2c1.5-1.5,3.9-1.5,5.4,0l50.1,50.1c1.5,1.5,1.5,3.9,0,5.4l-50.1,50.1c-1.5,1.5-3.9,1.5-5.4,0  L11.2,56.7C9.7,55.2,9.7,52.8,11.2,51.3z"/><path class="st2" d="M11.6,51.7L61.7,1.6c1.3-1.3,3.3-1.3,4.6,0l50.1,50.1c1.3,1.3,1.3,3.3,0,4.6l-50.1,50.1c-1.3,1.3-3.3,1.3-4.6,0  L11.6,56.3C10.4,55,10.4,53,11.6,51.7L11.6,51.7z M12,52.2c-1,1-1,2.7,0,3.7L62.2,106c1,1,2.7,1,3.7,0L116,55.8c1-1,1-2.7,0-3.7  L65.8,2c-1-1-2.7-1-3.7,0L12,52.2z"/><path class="st3" d="M64,76.1c12.2,0,22.1-9.9,22.1-22.1c0-12.2-9.9-22.1-22.1-22.1S41.9,41.8,41.9,54C41.9,66.2,51.8,76.1,64,76.1z  "/><linearGradient gradientUnits="userSpaceOnUse" id="SVGID_3_" x1="73.6173" x2="54.3834" y1="24.4021" y2="83.5981"><stop offset="0" style="stop-color:#E5E6E5"/><stop offset="1" style="stop-color:#FFFFFF"/></linearGradient><path class="st4" d="M64,75.5c11.8,0,21.5-9.6,21.5-21.5c0-11.8-9.6-21.5-21.5-21.5S42.5,42.2,42.5,54C42.5,65.8,52.2,75.5,64,75.5z  "/></svg>